<svg width="384" height="295" viewBox="0 0 384 295" fill="none" xmlns="http://www.w3.org/2000/svg">
<path d="M384 258.795H0.169189V258.992H384V258.795Z" fill="#E6E6E6"/>
<path d="M359.742 265.751H345.333V265.948H359.742V265.751Z" fill="#E6E6E6"/>
<path d="M293.232 271.161H286.561V271.358H293.232V271.161Z" fill="#E6E6E6"/>
<path d="M229.946 268.44H215.084V268.637H229.946V268.44Z" fill="#E6E6E6"/>
<path d="M95.4513 268.337H62.296V268.535H95.4513V268.337Z" fill="#E6E6E6"/>
<path d="M55.4638 268.337H50.6045V268.535H55.4638V268.337Z" fill="#E6E6E6"/>
<path d="M217.402 263.669H145.488V263.866H217.402V263.669Z" fill="#E6E6E6"/>
<path d="M182.105 223.621H33.8773C32.7161 223.619 31.6031 223.143 30.7827 222.299C29.9623 221.455 29.5016 220.31 29.5016 219.118V5.05362C29.5117 3.8675 29.9769 2.73338 30.7962 1.8976C31.6155 1.06182 32.7227 0.591876 33.8773 0.589844H182.105C183.268 0.589844 184.383 1.06429 185.205 1.9088C186.027 2.75332 186.488 3.89872 186.488 5.09305V219.118C186.488 220.312 186.027 221.457 185.205 222.302C184.383 223.146 183.268 223.621 182.105 223.621ZM33.8773 0.747575C32.767 0.749664 31.7028 1.20426 30.9184 2.01157C30.134 2.81888 29.6935 3.91295 29.6935 5.05362V219.118C29.6935 220.258 30.134 221.352 30.9184 222.16C31.7028 222.967 32.767 223.421 33.8773 223.424H182.105C183.216 223.421 184.281 222.967 185.067 222.16C185.852 221.353 186.294 220.259 186.296 219.118V5.05362C186.294 3.91222 185.852 2.81817 185.067 2.01109C184.281 1.204 183.216 0.74966 182.105 0.747575H33.8773Z" fill="#E6E6E6"/>
<path d="M348.158 223.621H199.922C198.76 223.619 197.647 223.144 196.825 222.299C196.004 221.455 195.541 220.311 195.539 219.118V5.05362C195.551 3.86678 196.018 2.73267 196.839 1.89711C197.659 1.06154 198.767 0.591853 199.922 0.589844H348.158C349.311 0.593948 350.416 1.06481 351.234 1.90037C352.052 2.73593 352.516 3.86886 352.526 5.05362V219.118C352.526 220.309 352.066 221.452 351.247 222.296C350.429 223.14 349.318 223.617 348.158 223.621ZM199.922 0.747575C198.811 0.74966 197.746 1.204 196.961 2.01109C196.175 2.81817 195.733 3.91222 195.731 5.05362V219.118C195.733 220.259 196.175 221.353 196.961 222.16C197.746 222.967 198.811 223.421 199.922 223.424H348.158C349.269 223.421 350.334 222.967 351.119 222.16C351.905 221.353 352.347 220.259 352.349 219.118V5.05362C352.347 3.91222 351.905 2.81817 351.119 2.01109C350.334 1.204 349.269 0.74966 348.158 0.747575H199.922Z" fill="#E6E6E6"/>
<path d="M200.498 15.3219H45.2386V128.99H200.498V15.3219Z" fill="#FAFAFA"/>
<path d="M203.369 15.3219H46.582V128.99H203.369V15.3219Z" fill="#F5F5F5"/>
<path d="M199.347 124.345V19.9592L50.6046 19.9592V124.345L199.347 124.345Z" fill="#FAFAFA"/>
<path d="M77.6876 124.345L101.286 19.9592H132.222L108.624 124.345H77.6876Z" fill="white"/>
<path d="M113.63 124.345L137.235 19.9592H151.207L127.601 124.345H113.63Z" fill="white"/>
<path d="M199.347 124.345V19.9592H198.832V124.345H199.347Z" fill="#FAFAFA"/>
<path d="M42.2217 15.1326V60.1804H53.821C53.821 60.1804 74.6323 46.2134 79.3995 17.4828C79.5151 16.7947 79.4824 16.0889 79.3039 15.4152C79.1254 14.7414 78.8054 14.1161 78.3663 13.5831C77.9272 13.05 77.3798 12.6223 76.7626 12.3301C76.1453 12.0378 75.4732 11.888 74.7936 11.8912H45.3768C44.54 11.8912 43.7375 12.2327 43.1458 12.8406C42.5541 13.4485 42.2217 14.2729 42.2217 15.1326Z" fill="#E0E0E0"/>
<path d="M42.2217 142.894V63.8161H53.821C53.821 63.8161 77.3652 110.386 80.0904 142.894H42.2217Z" fill="#E0E0E0"/>
<path d="M53.4833 60.1804H42.6439C42.0037 60.1804 41.4847 60.7136 41.4847 61.3713V62.6252C41.4847 63.2829 42.0037 63.8161 42.6439 63.8161H53.4833C54.1235 63.8161 54.6425 63.2829 54.6425 62.6252V61.3713C54.6425 60.7136 54.1235 60.1804 53.4833 60.1804Z" fill="#F5F5F5"/>
<path d="M206.67 15.1326V60.1804H195.048C195.048 60.1804 174.206 46.2134 169.469 17.4828C169.355 16.7949 169.389 16.0897 169.568 15.4165C169.747 14.7434 170.067 14.1186 170.506 13.5859C170.945 13.0532 171.491 12.6255 172.108 12.3328C172.725 12.0401 173.396 11.8894 174.075 11.8912H203.523C204.358 11.8954 205.157 12.2385 205.747 12.8457C206.336 13.4529 206.668 14.2749 206.67 15.1326Z" fill="#E0E0E0"/>
<path d="M206.67 142.894V63.8161H195.048C195.048 63.8161 171.511 110.386 168.778 142.894H206.67Z" fill="#E0E0E0"/>
<path d="M195.385 63.8082H206.225C206.865 63.8082 207.384 63.275 207.384 62.6173V61.3634C207.384 60.7057 206.865 60.1725 206.225 60.1725H195.385C194.745 60.1725 194.226 60.7057 194.226 61.3634V62.6173C194.226 63.275 194.745 63.8082 195.385 63.8082Z" fill="#F5F5F5"/>
<path d="M203.162 157.264H177.653V258.795H203.162V157.264Z" fill="#FAFAFA"/>
<path d="M196.353 258.795H203.162V247.067H189.214L196.353 258.795Z" fill="#F4F8FF"/>
<path d="M81.1191 157.264H55.6097V258.795H81.1191V157.264Z" fill="#E0E0E0"/>
<path d="M203.162 157.264H75.1775V254.757H203.162V157.264Z" fill="#FAFAFA"/>
<path d="M113.63 140.024C113.63 149.487 122.504 157.264 133.358 157.264H143.154C154.001 157.264 162.875 149.503 162.875 140.024H113.63Z" fill="#EBEBEB"/>
<path d="M107.949 118.359H126.373C126.373 118.359 123.172 127.034 123.172 132.145C123.172 137.255 137.189 157.264 117.161 157.264C97.1325 157.264 111.15 137.248 111.15 132.145C111.15 127.042 107.949 118.359 107.949 118.359Z" fill="#E0E0E0"/>
<path d="M197.88 163.202H80.4589V187.784H197.88V163.202Z" fill="#EBEBEB"/>
<path d="M81.9867 258.795H75.1775V247.067H89.1336L81.9867 258.795Z" fill="#FAFAFA"/>
<path d="M135.562 175.489C135.562 176.222 135.773 176.939 136.17 177.549C136.566 178.158 137.13 178.633 137.789 178.914C138.448 179.194 139.174 179.268 139.874 179.125C140.573 178.982 141.216 178.629 141.721 178.11C142.225 177.592 142.569 176.931 142.708 176.212C142.848 175.493 142.776 174.748 142.503 174.071C142.23 173.393 141.767 172.815 141.174 172.407C140.581 172 139.883 171.783 139.17 171.783C138.213 171.783 137.295 172.173 136.618 172.868C135.942 173.563 135.562 174.506 135.562 175.489Z" fill="#FAFAFA"/>
<path d="M197.88 193.723H80.4589V218.305H197.88V193.723Z" fill="#EBEBEB"/>
<path d="M135.562 206.01C135.562 206.743 135.773 207.46 136.17 208.069C136.566 208.679 137.13 209.154 137.789 209.435C138.448 209.715 139.174 209.789 139.874 209.646C140.573 209.503 141.216 209.15 141.721 208.631C142.225 208.113 142.569 207.452 142.708 206.733C142.848 206.014 142.776 205.269 142.503 204.592C142.23 203.914 141.767 203.335 141.174 202.928C140.581 202.521 139.883 202.303 139.17 202.303C138.213 202.303 137.295 202.694 136.618 203.389C135.942 204.084 135.562 205.027 135.562 206.01Z" fill="#FAFAFA"/>
<path d="M197.88 224.236H80.4589V248.818H197.88V224.236Z" fill="#EBEBEB"/>
<path d="M139.17 240.238C141.162 240.238 142.778 238.578 142.778 236.531C142.778 234.484 141.162 232.824 139.17 232.824C137.177 232.824 135.562 234.484 135.562 236.531C135.562 238.578 137.177 240.238 139.17 240.238Z" fill="#FAFAFA"/>
<path d="M284.112 13.9496H227.128V55.622H284.112V13.9496Z" fill="#E0E0E0"/>
<path d="M288.764 13.9496H230.368V55.622H288.764V13.9496Z" fill="#F5F5F5"/>
<path d="M285.041 51.797V17.7746L234.091 17.7746V51.797H285.041Z" fill="white"/>
<path d="M276.074 41.8837V27.68L243.057 27.68V41.8837H276.074Z" fill="#F5F5F5"/>
<path d="M330.34 34.7858H295.657V72.1522H330.34V34.7858Z" fill="#E0E0E0"/>
<path d="M335.008 34.7858H298.905V72.1522H335.008V34.7858Z" fill="#F5F5F5"/>
<path d="M331.285 68.3272V38.6108H302.628V68.3272H331.285Z" fill="white"/>
<path d="M311.594 53.469C311.594 52.1568 312.101 50.8982 313.003 49.9696C313.906 49.0411 315.13 48.5183 316.407 48.5162H317.497C318.775 48.5183 319.999 49.0411 320.901 49.9696C321.804 50.8982 322.311 52.1568 322.311 53.469C322.311 54.7804 321.804 56.0382 320.901 56.9655C319.998 57.8929 318.774 58.4138 317.497 58.4138H316.446C315.81 58.419 315.18 58.295 314.592 58.0488C314.004 57.8026 313.468 57.4392 313.017 56.9795C312.566 56.5198 312.208 55.973 311.964 55.3704C311.72 54.7679 311.594 54.1217 311.594 53.469Z" fill="#F5F5F5"/>
<path d="M384 84.8573H292.418H275.767V106.6H259.117V128.344H242.466V150.087H225.816V171.83H209.165V193.565H192.515V215.308H175.864V237.051H159.213V258.795H175.864H384V84.8573Z" fill="#FAFAFA"/>
<path d="M252.407 237.051H157.501V243.574H252.407V237.051Z" fill="#EBEBEB"/>
<path d="M269.058 215.308H174.152V221.83H269.058V215.308Z" fill="#EBEBEB"/>
<path d="M285.709 193.565H190.803V200.087H285.709V193.565Z" fill="#EBEBEB"/>
<path d="M302.359 171.822H207.453V178.344H302.359V171.822Z" fill="#EBEBEB"/>
<path d="M319.01 150.087H224.104V156.609H319.01V150.087Z" fill="#EBEBEB"/>
<path d="M335.66 128.344H240.754V134.866H335.66V128.344Z" fill="#EBEBEB"/>
<path d="M352.311 106.6H257.405V113.123H352.311V106.6Z" fill="#EBEBEB"/>
<path d="M368.961 84.8573H274.055V91.3795H368.961V84.8573Z" fill="#EBEBEB"/>
<path d="M367.349 84.8573V106.6H350.699V128.344H334.048V150.087H317.398V171.83H300.747V193.565H284.096V215.308H267.446V237.051H250.795V258.795H267.446H384V106.6V84.8573H367.349Z" fill="white"/>
<path d="M192.085 294.41C274.288 294.41 340.927 290.413 340.927 285.483C340.927 280.552 274.288 276.555 192.085 276.555C109.881 276.555 43.2427 280.552 43.2427 285.483C43.2427 290.413 109.881 294.41 192.085 294.41Z" fill="#F5F5F5"/>
<path d="M280.481 84.9756C281.556 88.6744 287.098 95.5988 287.536 100.638C287.973 105.678 278.523 113.738 278.523 113.738C278.523 113.738 271.461 89.4788 275.882 86.6476C280.304 83.8163 280.481 84.9756 280.481 84.9756Z" fill="#263238"/>
<path d="M261.074 111.183C259.401 112.618 257.758 113.825 256.046 115.063C254.334 116.301 252.569 117.429 250.772 118.485C248.969 119.581 247.112 120.579 245.207 121.474C244.24 121.924 243.28 122.366 242.282 122.752C241.791 122.957 241.292 123.154 240.785 123.328L239.25 123.88C237.937 124.257 236.564 124.359 235.212 124.18C234.082 124.044 232.963 123.822 231.865 123.517C229.818 122.935 227.814 122.202 225.869 121.325C222.094 119.631 218.453 117.641 214.976 115.37L216.412 112.626C218.224 113.414 220.081 114.203 221.924 114.889C223.766 115.575 225.624 116.301 227.482 116.892C229.293 117.502 231.139 117.997 233.009 118.375C233.867 118.548 234.737 118.656 235.611 118.698C236.263 118.75 236.918 118.681 237.546 118.493C239.297 117.805 241.009 117.015 242.674 116.127C243.526 115.67 244.37 115.205 245.199 114.7C246.028 114.195 246.873 113.706 247.694 113.186C249.345 112.137 250.957 111.025 252.553 109.881C254.15 108.738 255.739 107.515 257.159 106.356L261.074 111.183Z" fill="#E58A7B"/>
<path d="M265.128 102.783C263.224 101.253 255.348 106.261 252.96 108.351L254.703 119.179C254.703 119.179 266.026 114.306 266.701 110.978C267.415 107.5 266.548 103.951 265.128 102.783Z" fill="#B0BEC5"/>
<path opacity="0.2" d="M265.128 102.783C263.224 101.253 255.348 106.261 252.96 108.351L254.703 119.179C254.703 119.179 266.026 114.306 266.701 110.978C267.415 107.5 266.548 103.951 265.128 102.783Z" fill="black"/>
<path d="M291.62 135.552L267.715 140.339C255.363 105.977 258.05 104.85 258.05 104.85C259.787 103.869 261.582 103 263.423 102.247L263.746 102.121C265.281 101.545 265.588 101.459 267.63 100.843C271.146 99.9837 274.424 99.2661 278.485 98.6746L279.252 98.5642C280.02 98.4695 280.719 98.3907 281.425 98.3197C281.901 98.2645 282.377 98.2329 282.83 98.2014L284.365 98.1146C286.991 97.9806 288.871 98.02 288.871 98.02C288.142 119.479 289.324 125.639 291.62 135.552Z" fill="#B0BEC5"/>
<path opacity="0.2" d="M291.62 135.552L267.715 140.339C255.363 105.977 258.05 104.85 258.05 104.85C259.787 103.869 261.582 103 263.423 102.247L263.746 102.121C265.281 101.545 265.588 101.459 267.63 100.843C271.146 99.9837 274.424 99.2661 278.485 98.6746L279.252 98.5642C280.02 98.4695 280.719 98.3907 281.425 98.3197C281.901 98.2645 282.377 98.2329 282.83 98.2014L284.365 98.1146C286.991 97.9806 288.871 98.02 288.871 98.02C288.142 119.479 289.324 125.639 291.62 135.552Z" fill="black"/>
<path d="M272.896 87.4441C271.361 90.0546 276.927 91.2612 280.22 88.5877C282.853 86.4425 282.231 81.4898 279.974 80.3384C277.717 79.1869 272.896 87.4441 272.896 87.4441Z" fill="#B0BEC5"/>
<path opacity="0.4" d="M272.896 87.4441C271.361 90.0546 276.927 91.2612 280.22 88.5877C282.853 86.4425 282.231 81.4898 279.974 80.3384C277.717 79.1869 272.896 87.4441 272.896 87.4441Z" fill="black"/>
<path d="M296.164 277.777L290.184 278.235L287.996 264.094L293.976 263.637L296.164 277.777Z" fill="#E58A7B"/>
<path d="M338.462 258.014L333.388 261.295L324.353 250.285L329.427 246.996L338.462 258.014Z" fill="#E58A7B"/>
<path d="M287.996 264.094L289.209 271.949L295.105 270.932L293.984 263.645L287.996 264.094Z" fill="#CF6F64"/>
<path d="M329.435 247.004L324.353 250.285L328.099 254.844L333.288 251.697L329.435 247.004Z" fill="#CF6F64"/>
<path d="M268.083 140.339C268.083 140.339 267.999 189.094 271.875 207.453C275.913 226.554 287.789 270.009 287.789 270.009L296.402 268.866C296.402 268.866 289.67 224.969 286.799 205.986C283.674 185.3 285.594 136.837 285.594 136.837L268.083 140.339Z" fill="#B0BEC5"/>
<path opacity="0.7" d="M268.083 140.339C268.083 140.339 267.999 189.094 271.875 207.453C275.913 226.554 287.789 270.009 287.789 270.009L296.402 268.866C296.402 268.866 289.67 224.969 286.799 205.986C283.674 185.3 285.594 136.837 285.594 136.837L268.083 140.339Z" fill="black"/>
<path opacity="0.5" d="M285.056 158.446L280.834 154.125C280.995 172.855 282.016 182.106 285.524 192.185C284.972 181.53 284.926 168.928 285.056 158.446Z" fill="black"/>
<path d="M274.025 139.077C274.025 139.077 286.898 179.369 293.285 202.579C300.025 227.067 325.865 254.149 325.865 254.149L333.281 249.749C333.281 249.749 315.624 224.039 309.13 201.191C295.926 154.811 301.354 144.984 291.612 135.552L274.025 139.077Z" fill="#B0BEC5"/>
<path opacity="0.7" d="M274.025 139.077C274.025 139.077 286.898 179.369 293.285 202.579C300.025 227.067 325.865 254.149 325.865 254.149L333.281 249.749C333.281 249.749 315.624 224.039 309.13 201.191C295.926 154.811 301.354 144.984 291.612 135.552L274.025 139.077Z" fill="black"/>
<path d="M263.907 73.2169C267.331 74.3919 270.44 83.1223 270.57 86.5608C270.701 89.9994 260.652 94.7392 260.652 94.7392C260.652 94.7392 256.223 83.698 257.459 76.6002C257.996 73.5165 263.907 73.2169 263.907 73.2169Z" fill="#263238"/>
<path d="M216.918 112.918L212.857 108.375L211.529 114.069C211.529 114.069 214.416 116.687 216.75 115.788L216.918 112.918Z" fill="#E58A7B"/>
<path d="M208.743 107.074L205.902 109.392L211.529 114.069L212.857 108.375L208.743 107.074Z" fill="#E58A7B"/>
<path d="M331.799 260.12L336.543 255.206C336.625 255.122 336.734 255.071 336.849 255.063C336.965 255.054 337.08 255.088 337.173 255.159L341.495 258.456C341.602 258.542 341.689 258.65 341.753 258.774C341.816 258.898 341.852 259.034 341.86 259.173C341.868 259.313 341.847 259.452 341.799 259.583C341.75 259.713 341.675 259.832 341.579 259.93C339.89 261.61 339 262.336 336.912 264.497C335.63 265.829 333.887 267.904 332.114 269.741C330.34 271.579 328.475 269.867 329.043 268.952C331.63 264.796 331.17 263.243 331.346 261.129C331.373 260.747 331.534 260.388 331.799 260.12Z" fill="#263238"/>
<path d="M289.785 277.352H296.525C296.643 277.351 296.758 277.394 296.849 277.472C296.941 277.55 297.002 277.658 297.024 277.777L298.083 283.251C298.107 283.385 298.102 283.524 298.067 283.656C298.033 283.788 297.971 283.911 297.885 284.016C297.799 284.12 297.692 284.204 297.571 284.262C297.45 284.319 297.318 284.348 297.185 284.347C294.828 284.308 293.692 284.166 290.729 284.166C288.91 284.166 285.148 284.355 282.63 284.355C280.112 284.355 279.844 281.8 280.88 281.571C285.486 280.53 287.29 279.102 288.802 277.73C289.076 277.489 289.424 277.355 289.785 277.352Z" fill="#263238"/>
<g style="mix-blend-mode:multiply" opacity="0.27">
<path d="M289.647 110.457L285.962 112.713L290.215 129.14C289.286 124.164 289.7 118.698 289.647 110.457Z" fill="#B0BEC5"/>
</g>
<path d="M268.705 84.81C271.323 87.0577 275.122 90.3306 279.598 86.5056C283.436 83.2091 286.123 74.5576 279.237 74.2421C275.637 74.0765 268.705 84.81 268.705 84.81Z" fill="#263238"/>
<path d="M275.03 86.3479C275.03 90.0703 275.591 96.7818 278.485 98.6903C278.485 98.6903 278.224 102.523 271.729 103.817C264.598 105.244 267.63 100.859 267.63 100.859C271.346 99.1241 270.701 96.1745 269.473 93.5246L275.03 86.3479Z" fill="#E58A7B"/>
<path d="M272.766 89.2738L269.48 93.5246C269.768 94.139 270.004 94.7775 270.186 95.4332C271.63 94.9127 273.357 92.8306 273.211 91.1981C273.18 90.5339 273.029 89.8815 272.766 89.2738Z" fill="#CF6F64"/>
<path d="M275.376 77.7989C276.144 83.8636 276.612 86.411 274.247 90.0782C270.693 95.5988 263.278 95.2439 260.752 89.5419C258.449 84.4078 257.589 75.3462 262.84 71.8367C263.995 71.0515 265.325 70.5829 266.706 70.4754C268.087 70.368 269.471 70.6253 270.728 71.223C271.984 71.8206 273.071 72.7386 273.885 73.8896C274.698 75.0407 275.212 76.3864 275.376 77.7989Z" fill="#E58A7B"/>
<path d="M265.12 67.1758C261.128 70.0859 269.135 70.9455 269.142 75.1648C269.142 76.9077 271.929 82.4362 275.89 82.1207L279.729 75.1175C283.766 68.4139 274.224 60.5274 265.12 67.1758Z" fill="#263238"/>
<path d="M265.12 67.1758C258.096 66.7972 255.033 72.5386 255.839 77.6964C260.739 76.4412 265.808 76.0282 270.839 76.474C280.465 77.4835 265.12 67.1758 265.12 67.1758Z" fill="#263238"/>
<path d="M277.295 83.0277C277.392 84.2049 277.031 85.3736 276.289 86.2769C275.299 87.4678 273.986 86.7659 273.526 85.3542C273.134 84.0766 273.18 81.9236 274.516 81.2453C274.811 81.1051 275.136 81.0426 275.46 81.0634C275.784 81.0842 276.099 81.1878 276.375 81.3646C276.65 81.5415 276.879 81.7862 277.04 82.0765C277.2 82.3669 277.288 82.6937 277.295 83.0277Z" fill="#E58A7B"/>
<path d="M266.847 81.2453C266.939 81.7343 266.763 82.1759 266.456 82.239C266.149 82.3021 265.818 81.9551 265.726 81.4504C265.634 80.9456 265.811 80.5119 266.118 80.4488C266.425 80.3857 266.755 80.7564 266.847 81.2453Z" fill="#263238"/>
<path d="M261.481 82.3179C261.573 82.8069 261.397 83.2564 261.09 83.3195C260.783 83.3826 260.452 83.0356 260.36 82.5308C260.268 82.0261 260.445 81.5923 260.752 81.5371C261.059 81.4819 261.389 81.821 261.481 82.3179Z" fill="#263238"/>
<path d="M260.898 81.545L259.693 81.4425C259.693 81.4425 260.452 82.239 260.898 81.545Z" fill="#263238"/>
<path d="M263.063 82.8778C262.847 84.0726 262.475 85.2319 261.957 86.3243C262.232 86.4561 262.532 86.5244 262.836 86.5244C263.14 86.5244 263.44 86.4561 263.715 86.3243L263.063 82.8778Z" fill="#DF5753"/>
<path d="M265.719 87.9016C265.686 87.902 265.654 87.8904 265.628 87.8687C265.603 87.847 265.586 87.8167 265.58 87.7832C265.577 87.7646 265.578 87.7454 265.582 87.7269C265.586 87.7084 265.593 87.6909 265.604 87.6755C265.615 87.66 265.628 87.6469 265.644 87.637C265.66 87.6271 265.677 87.6205 265.696 87.6176C266.289 87.5116 266.85 87.2635 267.332 86.8936C267.815 86.5237 268.206 86.0423 268.475 85.4883C268.482 85.4707 268.492 85.4547 268.505 85.4412C268.518 85.4277 268.534 85.417 268.551 85.4096C268.568 85.4023 268.586 85.3985 268.605 85.3985C268.623 85.3984 268.642 85.4022 268.659 85.4094C268.676 85.4167 268.691 85.4273 268.705 85.4407C268.718 85.4542 268.728 85.4701 268.735 85.4877C268.742 85.5053 268.746 85.5241 268.746 85.5432C268.746 85.5622 268.743 85.5811 268.736 85.5987C268.454 86.2007 268.036 86.7244 267.517 87.1252C266.997 87.5261 266.391 87.7924 265.749 87.9016H265.719Z" fill="#263238"/>
<path d="M268.083 79.1475C268.013 79.1483 267.945 79.1231 267.891 79.0765C267.633 78.8243 267.32 78.6385 266.979 78.5344C266.637 78.4302 266.276 78.4106 265.926 78.4771C265.849 78.497 265.767 78.4845 265.698 78.4423C265.63 78.4002 265.581 78.3319 265.561 78.2524C265.542 78.1729 265.554 78.0888 265.595 78.0185C265.636 77.9483 265.703 77.8976 265.78 77.8778C266.223 77.7883 266.68 77.8081 267.114 77.9356C267.547 78.0631 267.945 78.2947 268.275 78.6112C268.328 78.6658 268.357 78.7395 268.357 78.8163C268.357 78.893 268.328 78.9667 268.275 79.0213C268.254 79.0551 268.225 79.0839 268.192 79.1057C268.159 79.1274 268.122 79.1417 268.083 79.1475Z" fill="#263238"/>
<path d="M258.51 80.2437C258.475 80.2519 258.438 80.2519 258.403 80.2437C258.368 80.2291 258.336 80.2074 258.309 80.1799C258.282 80.1524 258.261 80.1197 258.247 80.0837C258.233 80.0477 258.225 80.0091 258.226 79.9703C258.226 79.9314 258.234 79.893 258.249 79.8573C258.413 79.426 258.674 79.0412 259.012 78.7352C259.35 78.4292 259.754 78.2109 260.191 78.0986C260.228 78.0907 260.266 78.0906 260.303 78.0983C260.34 78.1061 260.375 78.1215 260.406 78.1436C260.437 78.1658 260.463 78.1942 260.483 78.2272C260.503 78.2601 260.516 78.2969 260.522 78.3352C260.529 78.3725 260.53 78.4111 260.523 78.4486C260.516 78.4861 260.501 78.5217 260.48 78.5534C260.46 78.5851 260.433 78.6121 260.402 78.6329C260.371 78.6536 260.336 78.6677 260.299 78.6743C259.954 78.771 259.636 78.9489 259.369 79.1939C259.103 79.439 258.895 79.7444 258.764 80.086C258.739 80.1332 258.702 80.1726 258.658 80.2004C258.613 80.2281 258.562 80.2431 258.51 80.2437Z" fill="#263238"/>
<path d="M330.018 262.982C329.886 262.979 329.757 262.943 329.642 262.877C329.527 262.811 329.43 262.717 329.358 262.604C329.303 262.537 329.267 262.457 329.252 262.371C329.237 262.285 329.244 262.197 329.273 262.115C329.542 261.374 331.661 260.9 331.899 260.845C331.926 260.84 331.955 260.843 331.981 260.855C332.007 260.866 332.029 260.884 332.045 260.908C332.061 260.931 332.07 260.959 332.07 260.987C332.07 261.015 332.061 261.043 332.045 261.066C331.63 261.768 330.816 262.943 330.056 262.982H330.018ZM331.622 261.208C330.786 261.429 329.68 261.823 329.542 262.217C329.528 262.254 329.526 262.293 329.534 262.331C329.542 262.369 329.561 262.403 329.588 262.43C329.636 262.512 329.703 262.579 329.784 262.624C329.865 262.67 329.956 262.693 330.049 262.691C330.456 262.667 331.031 262.123 331.622 261.208Z" fill="#B0BEC5"/>
<path d="M331.277 261.208C330.509 261.208 329.55 261.011 329.266 260.585C329.203 260.488 329.174 260.372 329.183 260.256C329.193 260.14 329.241 260.03 329.319 259.946C329.387 259.858 329.472 259.786 329.568 259.734C329.665 259.683 329.771 259.653 329.88 259.646H329.941C330.801 259.646 331.983 260.837 332.029 260.885C332.048 260.902 332.061 260.925 332.068 260.95C332.075 260.975 332.075 261.002 332.068 261.027C332.061 261.051 332.048 261.073 332.031 261.091C332.013 261.109 331.992 261.122 331.968 261.129C331.742 261.185 331.51 261.211 331.277 261.208ZM329.941 259.938H329.895C329.826 259.941 329.759 259.959 329.698 259.992C329.637 260.024 329.583 260.071 329.542 260.127C329.435 260.277 329.465 260.364 329.504 260.419C329.734 260.782 330.909 260.987 331.63 260.9C331.17 260.418 330.583 260.084 329.941 259.938Z" fill="#B0BEC5"/>
<path d="M287.582 278.432C287.065 278.479 286.549 278.346 286.115 278.054C286.013 277.971 285.932 277.864 285.881 277.741C285.83 277.619 285.81 277.484 285.824 277.352C285.823 277.272 285.843 277.194 285.88 277.125C285.918 277.056 285.973 276.998 286.039 276.957C286.745 276.531 289.217 277.793 289.493 277.935C289.519 277.949 289.54 277.971 289.554 277.998C289.568 278.025 289.573 278.055 289.57 278.085C289.566 278.115 289.554 278.143 289.535 278.165C289.516 278.188 289.491 278.204 289.462 278.211C288.843 278.344 288.214 278.418 287.582 278.432ZM286.445 277.154C286.355 277.149 286.265 277.168 286.184 277.21C286.158 277.224 286.137 277.246 286.123 277.272C286.11 277.299 286.104 277.33 286.108 277.36C286.1 277.448 286.114 277.538 286.147 277.62C286.18 277.703 286.233 277.776 286.3 277.833C286.683 278.172 287.674 278.227 288.979 278.006C288.186 277.579 287.33 277.291 286.445 277.154Z" fill="#B0BEC5"/>
<path d="M289.432 278.195H289.378C288.61 277.856 287.129 276.516 287.236 275.83C287.236 275.672 287.374 275.467 287.758 275.427H287.873C289.209 275.427 289.555 277.935 289.57 278.046C289.573 278.072 289.57 278.099 289.561 278.124C289.551 278.149 289.536 278.171 289.516 278.188C289.489 278.198 289.46 278.201 289.432 278.195ZM287.896 275.703H287.812C287.566 275.703 287.551 275.822 287.551 275.853C287.49 276.271 288.503 277.32 289.271 277.785C289.117 277.17 288.726 275.719 287.866 275.719L287.896 275.703Z" fill="#B0BEC5"/>
<path d="M266.264 80.4724L265.058 80.362C265.058 80.362 265.818 81.1665 266.264 80.4724Z" fill="#263238"/>
<path d="M271.538 109.061C258.695 112.003 262.663 104.022 263.431 102.263L263.753 102.137C265.289 101.561 265.596 101.474 267.638 100.859C271.201 99.8709 274.829 99.1462 278.493 98.6903L279.26 98.5799C280.028 98.4774 280.727 98.3985 281.433 98.3354C281.909 98.2802 282.385 98.2487 282.838 98.2171L284.373 98.1225C284.634 99.3528 285.271 105.93 271.538 109.061Z" fill="#E58A7B"/>
<path d="M291.696 134.038L293.193 136.025C293.308 136.175 293.147 136.388 292.871 136.443L267.799 141.459C267.584 141.506 267.385 141.459 267.346 141.293L266.709 139.14C266.709 138.99 266.832 138.825 267.062 138.778L291.274 133.935C291.347 133.913 291.424 133.911 291.499 133.929C291.573 133.947 291.641 133.984 291.696 134.038Z" fill="#26395A"/>
<path d="M288.971 137.468L289.624 137.342C289.754 137.342 289.839 137.232 289.816 137.145L288.971 134.353C288.971 134.266 288.818 134.227 288.687 134.251L288.042 134.377C287.912 134.377 287.827 134.495 287.85 134.574L288.695 137.374C288.718 137.453 288.848 137.5 288.971 137.468Z" fill="#B0BEC5"/>
<path d="M274.286 146.774L269.288 144.866L270.056 149.748C270.056 149.748 273.679 151.088 275.529 149.369L274.286 146.774Z" fill="#E58A7B"/>
<path d="M264.529 146.159L263.339 149.361L270.056 149.748L269.288 144.866L264.529 146.159Z" fill="#E58A7B"/>
<path d="M269.664 141.333L270.317 141.207C270.44 141.207 270.532 141.096 270.501 141.009L269.657 138.218C269.657 138.131 269.511 138.091 269.38 138.115L268.728 138.241C268.597 138.241 268.513 138.36 268.544 138.438L269.388 141.238C269.411 141.317 269.534 141.364 269.664 141.333Z" fill="#B0BEC5"/>
<path d="M279.322 139.393L279.967 139.266C280.097 139.266 280.181 139.156 280.158 139.069L279.314 136.277C279.314 136.191 279.16 136.151 279.03 136.175L278.385 136.301C278.255 136.301 278.17 136.419 278.193 136.498L279.038 139.298C279.068 139.344 279.113 139.378 279.164 139.395C279.215 139.412 279.271 139.411 279.322 139.393Z" fill="#B0BEC5"/>
<path d="M276.589 95.5593C277.134 95.3464 277.817 97.318 277.648 97.5704C277.257 98.1461 270.087 100.157 269.764 99.0294C269.744 98.4181 269.835 97.8083 270.033 97.2313C270.24 96.8527 271.829 97.5467 276.589 95.5593Z" fill="#B0BEC5"/>
<path d="M275.376 95.6067C275.652 94.9521 276.443 93.9032 277.134 94.5026C277.825 95.1019 278.116 96.3953 277.664 96.6083C277.211 96.8212 274.9 96.7029 275.376 95.6067Z" fill="#B0BEC5"/>
<path d="M276.842 95.9458C277.318 95.4253 278.377 94.7076 278.861 95.512C279.345 96.3165 279.168 97.6335 278.677 97.6729C278.185 97.7124 276.036 96.8054 276.842 95.9458Z" fill="#B0BEC5"/>
<path d="M277.103 95.8275C277.064 95.4082 277.145 94.9864 277.334 94.6128C277.523 94.2392 277.814 93.9298 278.17 93.7218C279.045 93.1382 279.897 92.7597 280.235 92.1445C280.381 92.7212 280.409 93.3225 280.32 93.9111C280.143 94.755 277.418 95.4016 277.602 96.1351L277.103 95.8275Z" fill="#B0BEC5"/>
<path d="M276.988 95.7881C276.734 95.4571 276.578 95.0576 276.54 94.6377C276.502 94.2179 276.583 93.7957 276.773 93.4221C277.188 92.4442 277.71 91.6555 277.679 90.9615C278.105 91.365 278.447 91.8533 278.684 92.3969C278.976 93.1855 277.034 95.2597 277.579 95.7802L276.988 95.7881Z" fill="#B0BEC5"/>
<path d="M330.379 249.851C330.363 249.851 330.348 249.846 330.334 249.838C330.321 249.83 330.31 249.818 330.302 249.804C330.125 249.552 312.577 223.826 306.144 201.223C301.945 186.724 298.719 171.947 296.486 156.995C295.158 148.573 294.352 143.486 291.712 139.314C291.694 139.295 291.684 139.269 291.684 139.243C291.684 139.216 291.694 139.191 291.712 139.172C291.73 139.156 291.753 139.147 291.777 139.147C291.801 139.147 291.824 139.156 291.842 139.172C294.514 143.383 295.32 148.486 296.648 156.932C298.89 171.863 302.122 186.618 306.32 201.097C312.746 223.668 330.279 249.362 330.456 249.623C330.47 249.642 330.478 249.665 330.478 249.69C330.478 249.714 330.47 249.737 330.456 249.757C330.454 249.779 330.446 249.8 330.432 249.817C330.419 249.834 330.4 249.846 330.379 249.851Z" fill="#B0BEC5"/>
<path opacity="0.4" d="M330.379 249.851C330.363 249.851 330.348 249.846 330.334 249.838C330.321 249.83 330.31 249.818 330.302 249.804C330.125 249.552 312.577 223.826 306.144 201.223C301.945 186.724 298.719 171.947 296.486 156.995C295.158 148.573 294.352 143.486 291.712 139.314C291.694 139.295 291.684 139.269 291.684 139.243C291.684 139.216 291.694 139.191 291.712 139.172C291.73 139.156 291.753 139.147 291.777 139.147C291.801 139.147 291.824 139.156 291.842 139.172C294.514 143.383 295.32 148.486 296.648 156.932C298.89 171.863 302.122 186.618 306.32 201.097C312.746 223.668 330.279 249.362 330.456 249.623C330.47 249.642 330.478 249.665 330.478 249.69C330.478 249.714 330.47 249.737 330.456 249.757C330.454 249.779 330.446 249.8 330.432 249.817C330.419 249.834 330.4 249.846 330.379 249.851Z" fill="black"/>
<path d="M297.945 268.834L286.215 270.396L285.448 267.036L297.661 264.378L297.945 268.834Z" fill="#B0BEC5"/>
<path d="M333.902 249.481L325.251 254.615L322.334 252.052L331.799 245.474L333.902 249.481Z" fill="#B0BEC5"/>
<path d="M293.301 106.372C293.715 108.564 293.953 110.631 294.184 112.768C294.414 114.905 294.498 117.019 294.56 119.156C294.621 121.31 294.575 123.466 294.421 125.615C294.337 126.695 294.245 127.776 294.099 128.864C294.038 129.4 293.969 129.945 293.869 130.489L293.585 132.161C293.27 133.524 292.693 134.808 291.888 135.938C291.228 136.889 290.499 137.788 289.708 138.628C288.227 140.191 286.636 141.641 284.949 142.965C281.684 145.547 278.23 147.865 274.616 149.898L272.973 147.279C274.508 146.025 276.044 144.732 277.579 143.415C279.114 142.098 280.573 140.765 281.978 139.377C283.366 138.041 284.676 136.621 285.9 135.126C286.463 134.434 286.976 133.701 287.436 132.934C287.798 132.374 288.059 131.751 288.203 131.096C288.453 129.182 288.599 127.254 288.641 125.323C288.641 124.337 288.641 123.351 288.641 122.366C288.641 121.38 288.603 120.378 288.557 119.385C288.464 117.397 288.288 115.441 288.081 113.422C287.873 111.403 287.605 109.408 287.313 107.539L293.301 106.372Z" fill="#E58A7B"/>
<path d="M292.372 99.6683C295.65 102.397 294.867 110.504 294.867 110.504L283.812 114.243C283.812 114.243 284.319 104.897 284.872 101.537C285.517 97.5389 289.14 96.979 292.372 99.6683Z" fill="#B0BEC5"/>
<path opacity="0.2" d="M292.372 99.6683C295.65 102.397 294.867 110.504 294.867 110.504L283.812 114.243C283.812 114.243 284.319 104.897 284.872 101.537C285.517 97.5389 289.14 96.979 292.372 99.6683Z" fill="black"/>
<path d="M146.34 133.501C145.911 131.589 144.863 129.883 143.369 128.661C141.874 127.439 140.02 126.774 138.11 126.774H76.6973C74.4578 126.774 72.3099 127.688 70.7263 129.315C69.1427 130.942 68.2531 133.149 68.2531 135.449V275.688C68.2531 277.988 69.1427 280.195 70.7263 281.822C72.3099 283.449 74.4578 284.363 76.6973 284.363H271.683C273.923 284.363 276.071 283.449 277.654 281.822C279.238 280.195 280.128 277.988 280.128 275.688V157.887C280.128 155.586 279.238 153.379 277.654 151.752C276.071 150.125 273.923 149.211 271.683 149.211H165.554C161.094 149.212 156.765 147.659 153.275 144.805C149.785 141.952 147.34 137.967 146.34 133.501Z" fill="#B0BEC5"/>
<path opacity="0.6" d="M146.34 133.501C145.911 131.589 144.863 129.883 143.369 128.661C141.874 127.439 140.02 126.774 138.11 126.774H76.6973C74.4578 126.774 72.3099 127.688 70.7263 129.315C69.1427 130.942 68.2531 133.149 68.2531 135.449V275.688C68.2531 277.988 69.1427 280.195 70.7263 281.822C72.3099 283.449 74.4578 284.363 76.6973 284.363H271.683C273.923 284.363 276.071 283.449 277.654 281.822C279.238 280.195 280.128 277.988 280.128 275.688V157.887C280.128 155.586 279.238 153.379 277.654 151.752C276.071 150.125 273.923 149.211 271.683 149.211H165.554C161.094 149.212 156.765 147.659 153.275 144.805C149.785 141.952 147.34 137.967 146.34 133.501Z" fill="black"/>
<path opacity="0.22" d="M124.661 89.8258L130.134 108.036C130.833 110.353 132.399 112.291 134.487 113.424C136.576 114.557 139.016 114.792 141.273 114.077L158.991 108.454L124.661 89.8258Z" fill="#B0BEC5"/>
<path d="M124.661 89.8258L61.3288 109.929C60.2108 110.281 59.1715 110.857 58.2703 111.623C57.3692 112.389 56.6238 113.33 56.0769 114.392C55.5301 115.454 55.1924 116.617 55.0833 117.813C54.9741 119.009 55.0956 120.216 55.4409 121.364L91.5977 241.618C91.9428 242.766 92.5047 243.833 93.2513 244.758C93.9979 245.683 94.9146 246.448 95.9489 247.009C96.9833 247.57 98.1152 247.916 99.2798 248.028C100.444 248.139 101.619 248.014 102.736 247.659L183.794 221.933C184.911 221.579 185.95 221.003 186.85 220.237C187.75 219.47 188.495 218.529 189.041 217.467C189.587 216.405 189.924 215.243 190.033 214.047C190.141 212.851 190.02 211.645 189.674 210.498L158.968 108.454L124.661 89.8258Z" fill="#B0BEC5"/>
<path opacity="0.8" d="M124.661 89.8258L61.3288 109.929C60.2108 110.281 59.1715 110.857 58.2703 111.623C57.3692 112.389 56.6238 113.33 56.0769 114.392C55.5301 115.454 55.1924 116.617 55.0833 117.813C54.9741 119.009 55.0956 120.216 55.4409 121.364L91.5977 241.618C91.9428 242.766 92.5047 243.833 93.2513 244.758C93.9979 245.683 94.9146 246.448 95.9489 247.009C96.9833 247.57 98.1152 247.916 99.2798 248.028C100.444 248.139 101.619 248.014 102.736 247.659L183.794 221.933C184.911 221.579 185.95 221.003 186.85 220.237C187.75 219.47 188.495 218.529 189.041 217.467C189.587 216.405 189.924 215.243 190.033 214.047C190.141 212.851 190.02 211.645 189.674 210.498L158.968 108.454L124.661 89.8258Z" fill="white"/>
<g opacity="0.28">
<path d="M158.737 216.681L106.045 233.4C105.06 233.711 103.994 233.608 103.082 233.115C102.17 232.621 101.486 231.777 101.178 230.766C100.878 229.754 100.98 228.66 101.462 227.725C101.944 226.79 102.766 226.088 103.75 225.774L156.442 209.046C157.428 208.736 158.495 208.839 159.407 209.335C160.319 209.83 161.003 210.676 161.309 211.688C161.609 212.701 161.507 213.794 161.025 214.729C160.543 215.665 159.721 216.366 158.737 216.681Z" fill="#B0BEC5"/>
</g>
<g opacity="0.28">
<path d="M102.03 118.556L74.1641 127.397C73.1787 127.706 72.1144 127.602 71.203 127.109C70.2915 126.616 69.6065 125.773 69.2971 124.763C68.9969 123.75 69.0987 122.655 69.5804 121.719C70.0622 120.782 70.8847 120.079 71.8688 119.763L99.7349 110.922C100.72 110.609 101.786 110.711 102.699 111.205C103.612 111.699 104.296 112.544 104.602 113.556C104.902 114.57 104.8 115.664 104.319 116.601C103.837 117.537 103.014 118.24 102.03 118.556Z" fill="#B0BEC5"/>
</g>
<g opacity="0.28">
<path d="M124.768 127.934L78.7087 142.547C77.7253 142.851 76.6652 142.743 75.7583 142.249C74.8514 141.754 74.171 140.912 73.8647 139.905C73.5623 138.894 73.6623 137.801 74.1429 136.865C74.6235 135.929 75.4454 135.227 76.4287 134.913L122.488 120.299C123.474 119.988 124.539 120.091 125.451 120.585C126.363 121.078 127.048 121.923 127.355 122.933C127.653 123.949 127.548 125.044 127.063 125.98C126.579 126.917 125.754 127.619 124.768 127.934Z" fill="#B0BEC5"/>
</g>
<g opacity="0.28">
<path d="M150.485 136.364L83.2685 157.658C82.2841 157.969 81.22 157.866 80.3092 157.372C79.3984 156.878 78.7152 156.034 78.4092 155.024C78.1087 154.011 78.2095 152.918 78.6896 151.982C79.1698 151.045 79.9906 150.342 80.9732 150.024L148.19 128.73C149.174 128.422 150.237 128.525 151.148 129.019C152.058 129.512 152.741 130.355 153.049 131.364C153.352 132.377 153.252 133.471 152.771 134.408C152.291 135.345 151.469 136.048 150.485 136.364Z" fill="#B0BEC5"/>
</g>
<g opacity="0.28">
<path d="M155.037 151.506L115.963 163.912C114.978 164.22 113.914 164.115 113.003 163.62C112.093 163.125 111.41 162.28 111.104 161.27C110.804 160.259 110.905 159.166 111.385 158.231C111.865 157.296 112.686 156.594 113.668 156.278L152.742 143.872C153.728 143.566 154.793 143.672 155.704 144.166C156.615 144.661 157.299 145.504 157.609 146.514C157.909 147.527 157.807 148.62 157.325 149.555C156.843 150.49 156.021 151.192 155.037 151.506Z" fill="#B0BEC5"/>
</g>
<g opacity="0.28">
<path d="M98.046 169.598L87.8285 172.839C86.8431 173.15 85.7779 173.048 84.8659 172.554C83.9538 172.061 83.2691 171.216 82.9615 170.205C82.6592 169.192 82.76 168.097 83.242 167.16C83.724 166.222 84.5479 165.52 85.5332 165.205L95.7507 161.964C96.7362 161.655 97.8004 161.759 98.7119 162.252C99.6234 162.745 100.308 163.588 100.618 164.598C100.916 165.611 100.813 166.705 100.332 167.641C99.8502 168.577 99.029 169.28 98.046 169.598Z" fill="#B0BEC5"/>
</g>
<g opacity="0.28">
<path d="M159.597 166.656L92.3807 187.989C91.3953 188.298 90.3312 188.193 89.4207 187.698C88.5103 187.203 87.8275 186.358 87.5214 185.347C87.2189 184.336 87.319 183.243 87.7995 182.307C88.2801 181.372 89.1021 180.67 90.0854 180.355L157.302 159.022C158.286 158.714 159.349 158.817 160.26 159.311C161.17 159.804 161.853 160.647 162.161 161.656C162.464 162.669 162.364 163.763 161.883 164.7C161.403 165.637 160.581 166.34 159.597 166.656Z" fill="#B0BEC5"/>
</g>
<g opacity="0.28">
<path d="M138.21 190.032L96.933 203.132C95.9486 203.44 94.8854 203.336 93.9751 202.843C93.0649 202.349 92.3814 201.506 92.0737 200.497C91.7731 199.485 91.8739 198.392 92.3541 197.455C92.8343 196.519 93.655 195.815 94.6377 195.497L135.915 182.398C136.901 182.089 137.966 182.194 138.878 182.689C139.79 183.184 140.474 184.029 140.782 185.04C141.084 186.052 140.983 187.146 140.501 188.082C140.019 189.018 139.195 189.719 138.21 190.032Z" fill="#B0BEC5"/>
</g>
<g opacity="0.28">
<path d="M164.149 181.806L153.133 185.3C152.147 185.609 151.082 185.504 150.17 185.009C149.259 184.514 148.574 183.669 148.266 182.658C147.966 181.646 148.069 180.553 148.55 179.617C149.032 178.682 149.855 177.98 150.838 177.666L161.854 174.172C162.838 173.862 163.903 173.964 164.813 174.458C165.724 174.952 166.407 175.796 166.713 176.806C167.016 177.819 166.916 178.913 166.436 179.85C165.955 180.787 165.133 181.49 164.149 181.806Z" fill="#B0BEC5"/>
</g>
<g opacity="0.28">
<path d="M168.702 196.964L101.501 218.258C100.514 218.568 99.4481 218.465 98.5359 217.97C97.6237 217.474 96.9397 216.628 96.6336 215.616C96.3315 214.604 96.4326 213.509 96.9147 212.574C97.3968 211.638 98.2206 210.936 99.2053 210.624L166.414 189.291C167.4 188.984 168.465 189.09 169.376 189.585C170.287 190.079 170.971 190.923 171.281 191.933C171.435 192.437 171.491 192.968 171.444 193.494C171.398 194.021 171.251 194.532 171.011 195C170.771 195.468 170.444 195.882 170.047 196.219C169.651 196.556 169.194 196.81 168.702 196.964Z" fill="#B0BEC5"/>
</g>
<path d="M170.145 44.6045L190.242 90.6144C190.764 91.8155 190.802 93.1799 190.347 94.4094C189.893 95.639 188.983 96.6336 187.816 97.176L102.56 136.49C101.391 137.029 100.062 137.068 98.8648 136.601C97.6674 136.134 96.6993 135.198 96.173 133.998L76.0679 87.9882C75.5417 86.7866 75.5016 85.4194 75.9565 84.1874C76.4114 82.9554 77.3241 81.9595 78.4937 81.4188L163.75 42.1044C164.921 41.5686 166.251 41.5308 167.45 41.9993C168.648 42.4677 169.617 43.4043 170.145 44.6045Z" fill="#B0BEC5"/>
<path opacity="0.3" d="M170.145 44.6045L190.242 90.6144C190.764 91.8155 190.802 93.1799 190.347 94.4094C189.893 95.639 188.983 96.6336 187.816 97.176L102.56 136.49C101.391 137.029 100.062 137.068 98.8648 136.601C97.6674 136.134 96.6993 135.198 96.173 133.998L76.0679 87.9882C75.5417 86.7866 75.5016 85.4194 75.9565 84.1874C76.4114 82.9554 77.3241 81.9595 78.4937 81.4188L163.75 42.1044C164.921 41.5686 166.251 41.5308 167.45 41.9993C168.648 42.4677 169.617 43.4043 170.145 44.6045Z" fill="black"/>
<path d="M156.708 42.331L153.984 43.5866L154.298 44.3062L157.022 43.0506L156.708 42.331Z" fill="#B0BEC5"/>
<path d="M150.168 45.3414L141.672 49.2568L141.986 49.9763L150.482 46.061L150.168 45.3414Z" fill="#B0BEC5"/>
<path d="M75.9922 92.6252L75.2919 92.9483L77.6187 98.2723L78.319 97.9492L75.9922 92.6252Z" fill="#B0BEC5"/>
<path opacity="0.6" d="M167.289 41.9389L145.303 86.1823C143.263 90.283 139.922 93.5459 135.832 95.4316C131.743 97.3173 127.149 97.7129 122.811 96.553L76.0219 84.0213C76.5018 82.868 77.3832 81.9401 78.4937 81.4188L163.75 42.1045C164.867 41.5914 166.132 41.5322 167.289 41.9389Z" fill="#B0BEC5"/>
<path d="M197.512 98.5641L131.355 102.76C130.186 102.831 129.043 103.139 127.99 103.665C126.937 104.19 125.995 104.925 125.218 105.825C124.442 106.725 123.846 107.774 123.464 108.911C123.083 110.048 122.923 111.252 122.995 112.452L130.541 238.069C130.612 239.27 130.912 240.446 131.425 241.528C131.939 242.61 132.655 243.577 133.533 244.374C134.411 245.171 135.433 245.782 136.541 246.173C137.65 246.563 138.822 246.725 139.991 246.649L224.664 241.279C225.832 241.206 226.974 240.898 228.025 240.371C229.076 239.845 230.016 239.11 230.791 238.21C231.565 237.309 232.159 236.261 232.538 235.124C232.918 233.988 233.075 232.785 233.001 231.586L226.629 124.984L197.512 98.5641Z" fill="#B0BEC5"/>
<path opacity="0.8" d="M197.512 98.5641L131.355 102.76C130.186 102.831 129.043 103.139 127.99 103.665C126.937 104.19 125.995 104.925 125.218 105.825C124.442 106.725 123.846 107.774 123.464 108.911C123.083 110.048 122.923 111.252 122.995 112.452L130.541 238.069C130.612 239.27 130.912 240.446 131.425 241.528C131.939 242.61 132.655 243.577 133.533 244.374C134.411 245.171 135.433 245.782 136.541 246.173C137.65 246.563 138.822 246.725 139.991 246.649L224.664 241.279C225.832 241.206 226.974 240.898 228.025 240.371C229.076 239.845 230.016 239.11 230.791 238.21C231.565 237.309 232.159 236.261 232.538 235.124C232.918 233.988 233.075 232.785 233.001 231.586L226.629 124.984L197.512 98.5641Z" fill="white"/>
<g opacity="0.22">
<path d="M201.511 230.088L146.462 233.581C145.434 233.642 144.424 233.282 143.653 232.58C142.882 231.878 142.413 230.891 142.348 229.835C142.289 228.779 142.638 227.742 143.319 226.949C144.001 226.156 144.959 225.671 145.986 225.6L201.035 222.114C202.064 222.052 203.075 222.41 203.847 223.11C204.619 223.81 205.091 224.796 205.158 225.853C205.219 226.91 204.869 227.95 204.186 228.744C203.502 229.537 202.541 230.021 201.511 230.088Z" fill="#B0BEC5"/>
</g>
<g opacity="0.22">
<path d="M168.932 121.001L139.815 122.831C138.787 122.892 137.777 122.533 137.005 121.833C136.233 121.133 135.761 120.148 135.692 119.093C135.633 118.035 135.983 116.997 136.666 116.204C137.349 115.411 138.31 114.927 139.339 114.858L168.456 113.012C169.484 112.95 170.494 113.308 171.265 114.008C172.036 114.709 172.505 115.695 172.571 116.75C172.636 117.81 172.289 118.852 171.607 119.649C170.925 120.446 169.963 120.932 168.932 121.001Z" fill="#B0BEC5"/>
</g>
<g opacity="0.22">
<path d="M188.876 135.623L140.766 138.667C139.737 138.732 138.726 138.375 137.953 137.674C137.18 136.973 136.709 135.986 136.644 134.929C136.583 133.871 136.933 132.831 137.616 132.038C138.299 131.244 139.261 130.761 140.29 130.694L188.392 127.65C189.421 127.585 190.433 127.942 191.206 128.643C191.979 129.344 192.449 130.331 192.514 131.388C192.575 132.444 192.227 133.483 191.545 134.276C190.863 135.07 189.904 135.554 188.876 135.623Z" fill="#B0BEC5"/>
</g>
<g opacity="0.22">
<path d="M211.929 150.047L141.718 154.495C140.687 154.56 139.672 154.202 138.896 153.5C138.121 152.798 137.648 151.809 137.581 150.749C137.52 149.693 137.868 148.656 138.55 147.864C139.232 147.071 140.192 146.589 141.219 146.522L211.437 142.066C212.466 142.006 213.476 142.366 214.247 143.068C215.018 143.769 215.487 144.756 215.552 145.812C215.613 146.866 215.267 147.902 214.588 148.695C213.91 149.489 212.954 149.974 211.929 150.047Z" fill="#B0BEC5"/>
</g>
<g opacity="0.22">
<path d="M212.881 165.868L172.064 168.454C171.036 168.517 170.025 168.159 169.252 167.459C168.48 166.758 168.009 165.772 167.942 164.716C167.879 163.659 168.226 162.62 168.908 161.826C169.591 161.032 170.552 160.548 171.58 160.481L212.397 157.894C213.426 157.83 214.438 158.187 215.211 158.888C215.983 159.589 216.454 160.576 216.519 161.633C216.58 162.689 216.232 163.728 215.55 164.521C214.868 165.315 213.909 165.799 212.881 165.868Z" fill="#B0BEC5"/>
</g>
<g opacity="0.22">
<path d="M153.341 169.637L142.663 170.316C141.635 170.378 140.625 170.02 139.854 169.319C139.083 168.619 138.613 167.633 138.548 166.577C138.487 165.521 138.835 164.483 139.517 163.689C140.199 162.896 141.159 162.411 142.187 162.342L152.865 161.664C153.894 161.604 154.905 161.963 155.677 162.665C156.449 163.367 156.92 164.353 156.987 165.41C157.046 166.467 156.696 167.504 156.012 168.296C155.329 169.088 154.369 169.57 153.341 169.637Z" fill="#B0BEC5"/>
</g>
<g opacity="0.22">
<path d="M213.832 181.688L143.614 186.136C142.586 186.199 141.575 185.841 140.803 185.14C140.03 184.44 139.559 183.454 139.492 182.398C139.433 181.341 139.783 180.302 140.466 179.509C141.149 178.716 142.11 178.232 143.138 178.163L213.349 173.715C214.379 173.652 215.39 174.011 216.163 174.713C216.936 175.415 217.406 176.403 217.471 177.461C217.532 178.517 217.183 179.554 216.502 180.346C215.82 181.139 214.86 181.621 213.832 181.688Z" fill="#B0BEC5"/>
</g>
<g opacity="0.22">
<path d="M187.686 199.228L144.566 201.964C143.537 202.025 142.526 201.665 141.754 200.963C140.982 200.262 140.511 199.275 140.444 198.218C140.385 197.162 140.736 196.124 141.419 195.332C142.102 194.54 143.062 194.058 144.09 193.991L187.21 191.254C188.238 191.194 189.248 191.554 190.019 192.256C190.79 192.958 191.259 193.944 191.325 195.001C191.388 196.057 191.04 197.095 190.357 197.888C189.675 198.681 188.714 199.163 187.686 199.228Z" fill="#B0BEC5"/>
</g>
<g opacity="0.22">
<path d="M214.777 197.516L203.262 198.242C202.234 198.305 201.224 197.946 200.453 197.246C199.682 196.545 199.212 195.559 199.147 194.504C199.084 193.447 199.432 192.407 200.114 191.613C200.796 190.819 201.757 190.336 202.786 190.269L214.301 189.543C215.33 189.478 216.342 189.835 217.114 190.536C217.887 191.237 218.358 192.224 218.423 193.281C218.482 194.339 218.132 195.377 217.449 196.17C216.766 196.963 215.805 197.447 214.777 197.516Z" fill="#B0BEC5"/>
</g>
<g opacity="0.22">
<path d="M215.729 213.337L145.518 217.785C144.49 217.847 143.479 217.489 142.707 216.789C141.934 216.089 141.463 215.103 141.396 214.046C141.335 212.99 141.683 211.951 142.365 211.158C143.047 210.364 144.007 209.88 145.035 209.811L215.253 205.363C216.28 205.301 217.29 205.659 218.061 206.36C218.832 207.06 219.302 208.046 219.367 209.102C219.43 210.159 219.083 211.198 218.4 211.992C217.718 212.786 216.757 213.27 215.729 213.337Z" fill="#B0BEC5"/>
</g>
<path opacity="0.22" d="M197.512 98.5641L198.656 117.586C198.727 118.786 199.028 119.959 199.541 121.039C200.053 122.119 200.768 123.084 201.644 123.881C202.521 124.677 203.541 125.288 204.647 125.679C205.753 126.069 206.923 126.233 208.09 126.159L226.629 124.984L197.512 98.5641Z" fill="#B0BEC5"/>
<path opacity="0.5" d="M175.849 146.017C175.837 145.106 175.648 144.206 175.292 143.371C174.936 142.536 174.421 141.782 173.777 141.155C173.133 140.528 172.373 140.04 171.542 139.719C170.711 139.399 169.826 139.253 168.94 139.29H107.45C102.79 139.29 98.238 143.178 97.3628 147.965L73.0971 275.688C72.1912 280.475 75.2312 284.363 79.8909 284.363H274.877C279.537 284.363 284.05 280.483 284.964 275.688L304.977 170.402C305.883 165.607 302.843 161.727 298.183 161.727H192.085C182.873 161.727 176.163 155.213 175.849 146.017Z" fill="#B0BEC5"/>
</svg>
